<?xml version="1.0" standalone="no"?>
<!DOCTYPE svg PUBLIC "-//W3C//DTD SVG 20010904//EN"
 "http://www.w3.org/TR/2001/REC-SVG-20010904/DTD/svg10.dtd">
<svg version="1.0" xmlns="http://www.w3.org/2000/svg"
 width="624.000000pt" height="624.000000pt" viewBox="0 0 624.000000 624.000000"
 preserveAspectRatio="xMidYMid meet">
<metadata>
Created by potrace 1.11, written by Peter Selinger 2001-2013
</metadata>
<g transform="translate(0.000000,624.000000) scale(0.100000,-0.100000)"
fill="#000000" stroke="none">
<path d="M4360 5629 c-8 -4 -141 -70 -295 -147 -253 -125 -321 -160 -520 -267
-33 -18 -105 -56 -160 -85 -55 -30 -201 -110 -325 -178 -270 -150 -384 -209
-419 -217 -14 -3 -37 -8 -51 -11 -50 -11 -157 -6 -225 11 -26 7 -145 72 -208
115 -13 8 -38 24 -56 35 -18 11 -42 28 -53 38 -12 9 -24 17 -28 17 -4 0 -45
22 -92 49 -106 61 -167 95 -293 161 -55 29 -120 70 -144 91 -102 90 -228 132
-396 133 -61 1 -79 -4 -145 -36 -42 -21 -86 -47 -98 -58 -11 -11 -25 -20 -29
-21 -4 0 -23 -19 -41 -42 -108 -137 -174 -208 -224 -242 -31 -21 -69 -58 -84
-82 -15 -24 -30 -43 -34 -43 -16 0 -50 -43 -50 -65 0 -29 61 -94 140 -151 65
-46 76 -54 98 -75 9 -9 36 -30 60 -47 24 -17 52 -42 63 -56 26 -33 120 -105
181 -139 25 -14 63 -36 85 -49 21 -14 76 -44 123 -67 153 -77 211 -135 256
-261 14 -41 31 -81 36 -88 16 -19 19 -69 5 -81 -7 -5 -24 -9 -38 -7 -29 3
-158 95 -160 114 -1 6 -3 17 -4 22 -1 6 -3 16 -4 24 -1 17 -27 15 -128 -9
-126 -30 -158 -37 -181 -41 -84 -16 -430 -95 -522 -119 -8 -3 -58 -16 -110
-30 -52 -14 -106 -28 -119 -31 -51 -11 -53 -17 -28 -65 60 -111 101 -187 122
-224 12 -22 40 -71 61 -110 20 -38 44 -81 51 -95 8 -14 29 -52 47 -85 59 -109
109 -199 138 -248 15 -26 28 -50 28 -52 0 -2 43 -82 96 -177 53 -95 108 -193
122 -218 13 -25 37 -68 53 -97 43 -79 54 -98 59 -103 3 -3 12 -18 20 -35 19
-39 117 -216 130 -235 5 -8 18 -31 28 -50 35 -66 80 -147 186 -334 58 -102
106 -191 106 -196 0 -6 5 -10 10 -10 6 0 10 -5 10 -11 0 -7 10 -28 22 -48 13
-20 23 -38 23 -41 1 -3 8 -18 17 -35 9 -16 21 -50 28 -74 28 -107 105 -167
190 -149 40 9 116 57 150 95 20 23 52 70 70 105 18 35 37 65 42 66 4 2 8 8 8
13 0 5 8 17 18 28 9 10 31 35 47 56 17 21 41 50 55 65 57 63 80 93 80 101 0 5
6 9 13 9 6 0 19 12 29 28 34 57 99 145 119 163 26 22 48 82 43 118 -20 141
-28 173 -60 238 -36 72 -41 106 -14 111 23 4 266 -235 295 -291 14 -26 23 -47
20 -47 -2 0 0 -12 6 -27 7 -19 7 -35 -1 -54 -9 -22 -8 -40 9 -93 11 -37 23
-88 26 -114 10 -72 24 -122 52 -182 24 -52 58 -155 68 -210 10 -52 17 -82 46
-208 12 -50 39 -127 60 -169 22 -43 39 -83 39 -90 0 -17 31 -24 115 -29 57 -2
80 1 111 16 21 11 43 20 48 20 5 0 57 23 115 52 58 29 108 53 111 54 64 18
237 110 274 145 17 17 52 40 77 51 l46 21 1 96 c0 53 -7 125 -15 161 -8 35
-16 78 -18 95 -13 119 -18 152 -30 185 -16 44 -24 94 -41 240 -8 69 -10 468
-2 534 3 32 11 63 17 69 14 14 57 -16 77 -56 16 -30 75 -221 73 -235 -1 -4 -1
-9 1 -12 1 -3 3 -16 6 -29 2 -13 13 -58 24 -100 10 -42 22 -92 25 -111 9 -54
36 -130 46 -130 5 0 9 -7 9 -16 0 -31 102 -124 174 -159 145 -71 296 -76 433
-15 81 37 129 74 139 108 10 35 9 33 21 62 6 14 21 50 32 80 12 30 26 64 31
75 81 176 123 261 131 263 5 2 9 10 9 17 0 17 121 227 199 345 31 47 58 90 60
95 2 6 7 12 10 15 4 3 24 32 45 65 68 106 204 296 225 315 3 3 24 28 46 55 52
65 76 94 96 114 8 9 37 43 65 76 27 33 52 62 55 65 3 3 39 48 80 100 40 52 77
97 81 98 5 2 8 7 8 12 0 7 20 39 101 160 85 129 126 309 94 418 -7 23 -11 42
-9 42 3 0 -14 36 -37 80 -47 92 -98 148 -154 171 -22 9 -58 24 -80 33 -95 39
-253 38 -398 -2 -45 -13 -119 1 -160 30 -47 32 -72 64 -111 139 -20 37 -44 82
-54 101 -10 18 -28 58 -41 88 -12 30 -26 64 -31 75 -5 11 -21 47 -35 79 -14
32 -42 82 -62 110 -20 28 -69 115 -109 192 -39 78 -87 164 -105 190 -48 72
-108 138 -126 140 -9 2 -19 6 -22 11 -26 36 -183 73 -221 52z m-2381 -1017 c8
-8 15 -31 15 -52 0 -54 -36 -96 -135 -157 -46 -28 -95 -60 -108 -72 -13 -12
-31 -21 -41 -21 -9 0 -21 -5 -28 -12 -7 -7 -12 -9 -12 -6 0 4 -13 3 -29 -2
-27 -7 -31 -5 -45 23 -11 25 -12 35 -3 47 83 107 135 152 268 233 72 45 90 47
118 19z m3756 -313 c65 -16 154 -62 194 -101 52 -51 61 -78 52 -154 -2 -24
-88 -102 -133 -123 -53 -24 -159 -51 -201 -51 -18 0 -45 -14 -76 -40 -88 -74
-106 -51 -116 145 -2 44 -7 89 -9 100 -3 11 -11 39 -17 63 -37 138 100 210
306 161z m-3598 -220 c102 -70 251 -220 323 -325 47 -68 70 -105 70 -112 0 -4
-35 -9 -78 -9 -290 -5 -421 -84 -410 -249 3 -47 4 -49 36 -52 41 -4 100 29
163 91 65 65 119 91 171 83 23 -4 48 -12 55 -18 23 -19 86 -17 114 3 21 15 29
16 37 6 13 -16 103 -199 126 -257 23 -59 46 -111 57 -132 5 -10 9 -25 9 -33 0
-8 4 -15 10 -15 21 0 101 -164 115 -237 14 -72 17 -182 6 -234 -16 -76 -58
-141 -107 -164 -48 -23 -152 -25 -182 -3 -46 32 -171 158 -267 268 -37 43
-155 198 -155 204 0 2 -20 35 -45 73 -50 75 -195 361 -195 384 0 8 -4 19 -9
25 -9 9 -67 174 -74 209 -2 11 -7 27 -10 35 -6 15 -11 37 -22 95 -4 17 -10 48
-15 70 -5 22 -12 54 -14 70 -3 17 -8 46 -12 66 -19 106 85 206 203 195 38 -3
66 -14 100 -37z m3757 -341 c-11 -18 -105 -142 -113 -148 -3 -3 -33 -41 -66
-85 -33 -44 -67 -87 -75 -97 -8 -9 -20 -23 -25 -30 -6 -7 -67 -85 -136 -173
-143 -184 -240 -310 -254 -333 -5 -9 -48 -67 -95 -130 -108 -146 -129 -176
-164 -237 -16 -27 -33 -53 -38 -56 -6 -3 -10 -10 -10 -15 0 -5 -30 -70 -66
-144 -36 -74 -66 -137 -67 -140 0 -9 -77 -154 -108 -205 -40 -64 -116 -165
-142 -187 -100 -87 -208 -94 -320 -19 -131 86 -235 278 -235 433 0 29 -23 126
-57 244 l-57 196 25 18 c19 15 291 180 370 225 10 6 60 34 111 64 51 30 107
62 123 71 17 10 57 33 90 52 33 20 81 47 108 62 26 14 68 38 95 52 26 15 52
30 57 34 6 5 75 42 155 82 80 41 217 121 305 177 88 57 173 110 190 118 16 9
32 19 35 22 5 6 179 95 189 97 3 0 20 7 36 14 17 7 37 14 46 16 12 3 58 18 97
33 2 0 0 -5 -4 -11z m-4178 -468 c49 -19 112 -106 181 -250 17 -36 52 -110 78
-165 27 -55 50 -119 53 -142 4 -38 2 -43 -15 -43 -61 0 -179 146 -214 265 -14
45 -42 102 -80 159 -33 48 -62 99 -65 112 -4 13 -10 27 -15 30 -16 9 -10 24
14 34 29 12 31 12 63 0z m1494 -975 c36 -8 50 -41 36 -83 -17 -50 -59 -97 -90
-100 -46 -3 -129 -47 -178 -93 -25 -24 -52 -43 -59 -43 -8 1 -21 2 -29 3 -9 0
-21 15 -28 33 -10 27 -9 37 11 76 28 58 126 155 186 184 48 25 105 33 151 23z"/>
<path d="M2468 3344 c-2 -1 -16 -5 -32 -8 -71 -13 -131 -41 -172 -80 -49 -47
-56 -79 -29 -142 14 -33 16 -34 37 -21 25 16 96 33 168 41 131 14 199 44 223
98 21 49 21 104 0 112 -16 7 -189 7 -195 0z"/>
<path d="M2552 3054 c-117 -31 -181 -89 -166 -151 7 -28 54 -93 54 -75 0 11
61 21 151 27 84 4 123 15 155 40 27 21 29 28 29 88 0 36 -4 69 -8 73 -14 14
-160 13 -215 -2z"/>
</g>
</svg>
