<svg width="165mm" height="164mm" version="1.1" viewBox="0 0 165 164" xmlns="http://www.w3.org/2000/svg">
	<g transform="matrix(.56386 -.31131 .54444 .98985 -223.63 -237.76)">
		<g transform="matrix(.049368 0 0 .049368 129.49 344.33)">
			<path d="m685.9 644.4c-80.127-54.314-400.12-101.17-337.88 17.78 105.07-5.3435 274.79 115.64 337.88-17.78z" style="fill:#1db954"/>
			<path d="m731.8 502.8c-105.93-52.066-431.26-115.57-414.2 12.277 121.09-14.914 341.04 111.98 414.2-12.277z" style="fill:#1db954"/>
			<path d="m762.6 354.8c-149.21-42.936-401.58-139.22-495.7 8.4477 126.08 61.242 282.29-67.686 390.04 48.198 43.256 13.703 173.65 24.292 105.66-56.646z" style="fill:#1db954"/>
		</g>
	</g>
	<g transform="translate(-209.41 51.186)">
		<path d="m220.05-14.274c7.5403-4.2383 12.089-18.518 22.629-13.718 7.695 3.8184 15.325 7.8645 22.696 12.246 5.4064 5.2766 13.16 5.7405 19.131 1.2605 13.372-7.3607 26.782-14.672 40.567-21.233 7.9811-0.27484 11.048 8.2747 13.908 14.214 5.2086 5.3793 4.624 16.104 12.608 18.39 5.5442-2.0047 12.531-2.3948 16.659 2.7983 4.6452 4.4367 3.6823 11.468 0.30926 16.333-5.5252 9.4603-14.181 16.601-19.743 26.057-6.0423 8.6188-11.253 17.897-14.723 27.86-7.0825 6.5732-20.401 2.8785-21.022-7.3762-1.4492-3.8385-2.1726-14.185-5.5513-13.414-1.4783 10.771 0.25067 21.667 2.7088 32.16-0.94848 9.2188-12.01 9.3729-18.097 13.725-9.4241 2.7141-8.1554-11.932-11.083-17.8-3.4279-5.6585-0.0375-14.173-6.4376-17.725-0.85646-3.5676-8.2588-7.4027-4.008-1.0309 4.3109 9.4698-6.6349 15.662-10.641 22.894-2.533 6.0194-10.059 8.5193-11.18 0.17164-12.273-21.722-24.363-43.548-36.282-65.466 9.4751-2.8746 19.236-4.6203 28.853-6.9317 0.85027 4.332 9.6152 7.637 5.1851 0.72147-1.6966-8.4717-12.924-8.45-17.843-15.122-1.6388-2.3005-10.943-6.3449-8.6436-9.0123zm30.531 14.22c4.5883 1.0012 15.674-6.5641 10.169-9.3243-4.0686 2.1581-8.3738 4.8597-10.169 9.3243zm6.3475 35.268c-0.1086 3.5008 8.5205 12.357 5.6356 4.4651-2.2776-4.0155-6.0134-15.691-10.019-12.487 0.83104 2.9986 3.4234 5.0818 4.3832 8.0215zm1.132-24.962c2.1689 15.085 10.025 29.255 21.567 39.189 10.257 2.7729 8.9484-12.303 4.2549-17.178-4.0492-10.332-9.3046-20.965-18.739-27.393-3.3322-1.8368-8.5849 1.3913-7.083 5.3822zm26.284 50.066c5.615 4.2033 17.704-10.316 6.4908-7.4505-2.9788 1.5637-5.452 4.218-6.4908 7.4505zm30.35-5.5679c-0.94694 7.7229 8.5705 19.384 15.529 11.222 5.9968-7.2112 7.8345-16.941 14.111-23.998 6.564-9.5982 14.135-18.444 21.136-27.715-9.5932 2.1986-16.733 9.6826-25.692 13.403-9.4388 5.3665-18.877 10.74-28.127 16.429 0.89782 3.5852 2.0103 7.1112 3.0412 10.659zm38.324-50.339c1.6439 3.1281-0.98238 13.002 4.8919 6.5651 7.1246 0.3002 15.029-6.1043 5.3488-10.6-3.4627-1.723-12.206-2.3209-10.241 4.035z" style="fill:#a0a0a0;stroke-width:.18869"/>
		<path d="m228.34-21.844c3.66-8.676 16.53-8.8905 22.019-1.9408 8.2519 4.4351 16.455 8.9716 24.435 13.884 13.921-5.5868 26.629-13.721 39.93-20.554 5.3766-3.2463 13.628-7.3402 18.627-1.3016 5.3325 8.5924 9.2848 17.977 14.39 26.711 6.5556 5.128 18.452-3.7444 22.268 7.2637 3.5709 8.7263-3.0468 16.877-8.5638 23.02-11.17 13.515-21.763 27.982-27.647 44.665-6.4996 6.0464-19.895 2.7839-20.39-6.871-1.8203-3.6662-2.1993-15.569-5.9888-13.764-2.3106 12.244 1.7236 24.374 2.7896 36.513-8.0545 2.5933-14.618 10.596-23.688 9.1318-2.8807-9.3052-5.6778-18.636-8.3891-27.992 3.316-5.2389-6.4983-8.5448-7.6935-12.314-4.2718 2.4195 5.7772 10.024-0.80206 13.819-5.6004 5.9556-9.7473 14.868-16.599 18.697-5.401-4.4387-6.6218-12.56-11.042-18.129-9.8189-17.585-19.629-35.175-29.279-52.854 9.7075-2.6544 19.566-4.6954 29.38-6.9075-1.1586 4.5034 9.3109 8.5716 4.8581 1.6823-0.40488-8.6948-9.1668-7.4505-13.615-13.003-5.4791-3.7346-18.664-11.277-7.9852-16.895 1.0081-0.94051 2.0148-1.8831 2.9864-2.8616zm22.058 21.912c4.9546 1.1283 16.02-6.3136 11.012-9.9291-4.9357 1.4097-8.7644 5.4425-11.012 9.9291zm6.3091 35.19c-0.97822 4.6507 10.316 12.13 5.4384 3.4428-1.8127-4.0346-5.888-15.803-9.9999-11.462 0.85288 3.0388 3.891 4.8984 4.5615 8.0197zm1.1359-25.001c1.9676 14.932 10.01 28.569 20.743 38.925 10.634 4.9896 10.965-11.673 5.5886-16.921-4.2705-10.203-9.3136-21.221-18.82-27.486-3.6286-1.5509-8.9 0.95947-7.512 5.4826zm26.311 50.227c5.3976 4.6806 18.046-9.8133 7.2994-8.223-3.4152 1.5553-6.449 4.4637-7.2994 8.223zm30.338-5.6945c-0.39551 6.7234 5.8022 17.206 13.528 13.329 8.6214-7.4741 10.275-19.852 17.914-28.16 6.2685-8.93 13.604-17.049 19.896-25.962-9.564 1.624-16.337 9.5424-25.221 12.94-9.8088 5.5931-19.611 11.201-29.302 16.996 1.0108 3.6339 2.1179 7.24 3.1855 10.857zm37.745-51.507c3.4259 2.8092-1.7206 14.734 5.7903 7.8211 4.8899-0.47194 14.286-2.8988 7.99-9.0431-3.4919-3.3564-12.758-5.6316-13.78 1.222z" style="fill:#5e5e5e;stroke-width:.18869"/>
		<path d="m221.55-15.007c6.524-3.509 9.0305-13.219 17.294-13.5 7.5654 3.6449 17.328 5.4901 22.434 12.781 5.0556 8.5087-15.93 9.8996-8.5607 16.263 5.2989-2.4489 13.817-12.143 16.671-1.3196 8.2699 17.101 17.583 33.672 26.255 50.569-3.6391 3.0833-14.991 6.161-9.2538 12.295 4.8687-8.1005 17.985-5.7504 17.562 4.1009 6.3827 2.2999 5.7992 13.351 4.1623 19.173-5.0476 4.7556-12.381 8.246-19.261 9.5409-5.8035-3.3374-4.135-12.442-7.7316-18.003-2.4876-7.1751 0.0528-14.543-7.4173-19.174-1.61-3.3211-5.8963-5.9749-4.7983-0.29896 6.6993 8.2474-2.6521 14.171-7.1785 20.383-3.051 4.0877-8.5864 14.072-12.086 4.9716-3.1414-7.9473-8.0432-14.983-11.64-22.74-8.7421-13.545-16.076-27.957-24-42.006 5.4737-6.7993 15.878-3.7959 23.018-7.7103 4.5161-1.4071 9.4163 4.3578 10.557 5.2814 1.9764-8.2589-4.1615-13.899-11.523-15.348-4.4193-5.5124-12.592-8.5282-15.638-14.209l0.38965-0.5775zm33.775 48.401c1.6857 3.5005 6.8462 14.748 9.021 8.6182-3.7376-4.8746-5.4699-18.52-12.982-15.713 0.54603 2.7341 3.4295 4.3584 3.9611 7.0947zm2.1913-23.107c2.25 15.434 10.308 29.985 22.338 39.939 9.4737 2.451 9.2971-10.305 5.9657-15.855-4.5772-8.8031-7.8905-18.677-15.284-25.729-3.3309-5.3734-14.159-7.4311-13.019 1.6453zm-13.885 59.852c1.1717-0.24951-0.84391-0.85025 0 0zm-6.4025-10.966c1.6084 0.26884-0.93959 1.0798 0 0zm68.666-79.395c8.5751-4.5795 17.115-9.2268 25.745-13.702 6.2134 10.759 11.668 21.937 17.927 32.67 6.8081-5.1528 19.935-2.7338 21.068 6.8147 0.66276 11.436-9.7028 18.588-15.526 27.088-8.7805 11.386-16.991 23.551-21.502 37.323-7.2791 6.2261-20.499 1.5043-20.197-8.6618-4.8861-20.158-17.122-37.341-26.338-55.592-5.9434-5.3769-7.1779-16.029 2.7851-17.34 5.4434-2.6837 10.614-5.8809 16.039-8.6001zm8.1675 74.64c-0.0163 6.7138 5.1228 17.175 13.213 14.341 9.0998-5.5818 9.7315-17.673 16.555-25.197 6.9192-10.508 15.58-19.727 22.615-30.151-9.7279 1.3864-16.486 9.6108-25.473 12.981-10.031 5.6926-20.07 11.383-29.85 17.502 0.7949 3.5575 1.9286 7.0255 2.9397 10.524zm38.342-50.028c2.5048 3.1375-2.728 14.96 4.2067 7.7161 7.4086-0.2842 17.409-7.26 6.7329-12.272-3.6717-1.6704-13.717-2.2916-10.94 4.5559z" style="stroke-width:.18869"/>
	</g>
</svg>
