<svg width="532.22mm" height="138.8mm" version="1.1" viewBox="0 0 532.22 138.8" xmlns="http://www.w3.org/2000/svg">
	<g transform="translate(150.91 38.588)">
		<path d="m220.05-14.274c0.49533-0.44794 4.5843-4.3236 9.0865-8.6125 4.5023-4.289 8.2933-7.8289 8.4246-7.8664 0.1312-0.03759 0.39092 0.01772 0.57704 0.12289 0.70497 0.39834 20.85 11.285 24.42 13.197 2.0544 1.1003 4.0956 2.278 4.536 2.6172 0.44035 0.33918 1.5232 1.0165 2.4063 1.5052 0.8831 0.48867 1.8684 1.0474 2.1895 1.2417 2.6449 1.6002 3.5757 2.0819 3.9213 2.0293 0.32247-0.04907 9.1699-4.7094 43.823-23.084 2.5853-1.3708 4.7429-2.4798 4.7947-2.4643 0.0518 0.01543 1.7114 0.20016 3.6882 0.41051s3.6952 0.4126 3.8187 0.44943c0.12356 0.03684 4.2122 7.4779 9.0859 16.536l8.8613 16.469 1.4763-0.73562c2.6715-1.3312 5.641-1.9891 8.5693-1.8985 1.8288 0.056553 4.8901 0.87446 6.2369 1.6663 2.7312 1.6059 4.5089 4.2909 5.0756 7.6662 0.40348 2.4029 0.3649 3.7826-0.16864 6.0299-0.80892 3.4074-2.7014 6.5298-7.2268 11.924-10.715 12.771-17.945 22.948-23.202 32.659-1.5728 2.9052-4.0763 7.9974-4.6434 9.445-0.43373 1.1072-0.45462 1.2813-0.20297 1.6929 0.3638 0.59496 0.33253 0.66424-0.54963 1.2179-0.69316 0.43505-0.80426 0.61434-1.6638 2.6847-0.57133 1.3762-1.0239 2.2463-1.1919 2.2917-0.38961 0.10524-2.852-0.27074-3.1188-0.47621-0.12371-0.0953-0.16696-0.36798-0.096-0.60598 0.0709-0.23799 0.0726-0.44953 3e-3 -0.47008-0.069-0.02055-1.1837 0.52378-2.4773 1.2096l-2.352 1.247-1.2879-0.23866c-3.5558-0.65891-6.2389-2.5077-7.7388-5.3326-0.25797-0.48582-1.8619-5.5467-3.5644-11.246-1.7025-5.6997-3.1683-10.514-3.2573-10.698-0.12081-0.25016-0.22958-0.29863-0.42853-0.19107-0.19897 0.10756-0.36464 2.0791-0.65305 7.7713l-0.38646 7.6272 0.81277 5.1648c1.987 12.626 2.8925 18.785 2.8052 19.077-0.0531 0.17816-2.1832 1.3492-4.8887 2.6876-11.838 5.8563-18.094 8.8423-18.36 8.7631-0.29403-0.08767-9.4079-29.921-9.2877-30.402 0.0338-0.13511 0.56831-0.57351 1.188-0.97422l1.1266-0.72856-1.7683-3.3737-1.0068 0.63015c-0.55374 0.34658-1.1074 0.60016-1.2303 0.56351-0.12295-0.03664-1.466-2.2535-2.9847-4.9264s-2.8196-4.8771-2.8908-4.8984c-0.0713-0.02124-0.68642 0.30482-1.367 0.7246l-1.2374 0.76324 2.6277 4.8092c2.0584 3.7673 2.5858 4.8844 2.4343 5.156-0.40645 0.72872-19.107 24.454-19.417 24.633-0.37067 0.21503 0.4107 1.5508-8.8546-15.137-3.1706-5.7106-11.692-21.039-18.936-34.063s-13.14-23.786-13.101-23.915c0.0931-0.31222 0.3364-0.40031 2.3176-0.83916 0.92762-0.20547 4.8288-1.1057 8.6694-2.0005 16.039-3.7371 18.379-4.2634 18.623-4.1905 0.14115 0.042101 1.184 1.7042 2.3173 3.6937 1.1333 1.9894 2.1501 3.6438 2.2594 3.6764 0.10934 0.03261 0.68275-0.25183 1.2742-0.63209l1.0754-0.69137-2.3271-4.1052c-1.2799-2.2578-2.2876-4.2294-2.2393-4.3813 0.0483-0.15185 0.43228-0.52779 0.85332-0.83544l0.76552-0.55936-0.77043-1.2587c-0.42373-0.69226-0.82969-1.2785-0.90214-1.3027-0.0725-0.024221-0.72781 0.39846-1.4564 0.9393s-1.4259 0.95316-1.5496 0.91627c-0.29894-0.089135-21.998-16.991-22.22-17.308-0.25452-0.36302-0.13533-0.56621 0.85919-1.4656zm30.531 14.22c0.44162 0.69336 0.88974 1.2566 0.99581 1.2517 0.30386-0.014161 13.191-9.2012 13.268-9.4583 0.093-0.31167-1.3822-2.9798-1.6395-2.9655-0.21601 0.01193-13.313 9.5972-13.385 9.7958-0.0229 0.06365 0.31953 0.68302 0.76117 1.3764zm6.3475 35.268 5.4607 9.8364 1.2636-0.67299c0.69498-0.37014 1.2684-0.77126 1.2742-0.89138 0.0138-0.27976-10.585-19.065-10.839-19.212-0.16002-0.09253-2.5497 0.86728-2.6028 1.0454-9e-3 0.03225 2.4399 4.485 5.4433 9.895zm1.132-24.962c0.0709 4.9321 2.649 12.443 7.3676 21.466 2.5429 4.8622 4.6682 8.0016 7.8 11.522 3.4007 3.8225 6.0445 5.9839 8.3948 6.863 1.6656 0.62304 2.5629 0.65751 3.6856 0.14158 1.1218-0.51553 1.7895-1.4808 2.1697-3.1369 0.26193-1.1409 0.26049-1.6764-9e-3 -3.3027-0.65635-3.9618-2.5863-9.9791-4.7801-14.904-1.4673-3.2938-5.4386-10.609-7.2954-13.438-4.1724-6.357-7.6426-9.6123-11.54-10.825-1.283-0.39931-1.8183-0.47822-2.5636-0.37791-2.1938 0.29527-3.2827 2.3154-3.2298 5.992zm26.284 50.066c0.43803 0.84802 0.89991 1.5463 1.0264 1.5517 0.3124 0.0133 12.362-7.321 12.35-7.5175-0.02-0.34326-1.8663-3.6899-2.0625-3.7386-0.28991-0.07196-12.064 7.6584-12.09 7.9377-0.0107 0.1237 0.33758 0.91873 0.77562 1.7668zm30.35-5.5679c2.0592 6.9067 3.3238 10.805 3.7436 11.539 1.0884 1.9043 3.6557 3.3872 5.2886 3.0546 0.5614-0.11434 2.217-0.87232 6.2-2.8385l1.4425-0.71209 1.4435-3.1936c6.0909-13.476 13.424-24.581 27.011-40.909 4.218-5.0688 7.0857-9.1627 6.376-9.1023-0.21781 0.01852-1.0727 0.5058-15.21 8.6701-5.4024 3.1198-9.8907 5.6802-9.974 5.6898-0.13366 0.0154-3.7712 2.1139-24.367 14.057-2.71 1.5715-4.9579 2.9602-4.9954 3.0859-0.0375 0.12573 1.3312 4.9222 3.0415 10.659zm38.324-50.339 1.388 2.6091-0.43113 1.446c-0.63239 2.121-1.5227 5.9085-1.3968 5.9419 0.0598 0.01587 2.2714-1.2809 4.9146-2.8818l4.8058-2.9106 1.5047 0.56686c0.82754 0.31177 1.9169 0.74426 2.4208 0.96108l0.91618 0.39422 0.17998-0.61338c0.59273-2.0202 0.16826-5.286-0.9229-7.1002-0.96498-1.6044-1.973-2.3097-4.2434-2.9688-2.1227-0.61629-4.0707-0.63067-6.4165-0.047367-1.4942 0.37156-3.9481 1.46-4.0482 1.7956-0.0326 0.1091 0.56545 1.3725 1.3288 2.8075z" style="fill:#a0a0a0;stroke-width:.18869"/>
		<path d="m228.34-21.844c7.412-7.0538 9.1358-8.6083 9.4833-8.5519 0.36358 0.05903 15.229 8.0262 23.386 12.534 1.4411 0.79638 3.2714 1.7901 4.0672 2.2082 0.79585 0.41813 1.5798 0.91332 1.7422 1.1004 0.16239 0.18711 0.56142 0.48325 0.88673 0.65808 1.0345 0.55599 5.4379 3.1171 6.0837 3.5385 1.2527 0.81728 1.5861 0.80323 3.3976-0.1432 0.92248-0.48196 11.31-5.9723 23.082-12.201 11.773-6.2284 21.927-11.591 22.564-11.917l1.1588-0.59283 3.5232 0.36759c1.9377 0.20217 3.6865 0.41485 3.8862 0.47261 0.24088 0.06969 3.3305 5.5942 9.1824 16.419 4.8506 8.9727 8.8758 16.331 8.9448 16.351 0.069 0.020576 0.68227-0.25243 1.3628-0.60667 2.5791-1.3425 6.1185-2.0777 9.1193-1.8942 1.7198 0.10515 4.6372 0.97883 5.9256 1.7746 2.9558 1.8255 4.6638 4.9584 4.9061 8.9989 0.22854 3.8111-0.8864 7.1385-3.7947 11.325-0.59209 0.85226-2.5191 3.2849-4.2822 5.4058-13.492 16.231-20.429 26.598-26.521 39.637-1.3574 2.9052-1.3636 2.924-1.1455 3.4753 0.28578 0.72229 0.22743 0.86819-0.51637 1.2911-0.55773 0.31716-0.71574 0.58072-1.5434 2.5744-0.50716 1.2216-0.97703 2.2508-1.0441 2.2871-0.189 0.10218-1.6871-0.07499-2.4324-0.28764-0.64353-0.18362-0.66404-0.21808-0.52812-0.88726l0.14145-0.69621-2.352 1.3017c-1.2936 0.71594-2.5613 1.3375-2.8171 1.3812-0.75905 0.12978-3.2548-0.49353-4.5497-1.1363-1.6198-0.80406-3.2784-2.3537-4.1328-3.8614-0.48016-0.84732-1.4221-3.6514-2.9928-8.9098-1.2607-4.2204-2.7066-9.0614-3.2132-10.758-0.83186-2.7858-0.96113-3.0763-1.3347-3-0.23605 0.04825-0.46945 0.27162-0.54357 0.52021-0.0714 0.23961-0.29248 3.7812-0.4912 7.8703-0.31237 6.4277-0.31714 7.6878-0.0352 9.304 0.91148 5.2254 3.4046 22.076 3.2953 22.273-0.0691 0.12466-5.2523 2.7362-11.518 5.8034-10.869 5.3208-11.402 5.5576-11.602 5.1581-0.23344-0.46628-8.9246-29.405-8.9567-29.822-0.0107-0.14531 0.47199-0.55198 1.0737-0.90371 0.60166-0.35174 1.1121-0.70028 1.1342-0.77455 0.0763-0.25572-1.5573-3.5253-1.797-3.5968-0.13197-0.03936-0.65533 0.20333-1.1629 0.53934-0.50754 0.336-0.99184 0.59032-1.0762 0.56516-0.0844-0.02517-1.3909-2.2311-2.9033-4.9021s-2.8695-4.892-3.0157-4.9356c-0.26293-0.07839-2.7222 1.3681-2.8148 1.6557-0.0265 0.0819 1.15 2.2813 2.6142 4.8876l2.6622 4.7386-9.6205 12.286c-5.2913 6.7573-9.7084 12.335-9.8158 12.396-0.10797 0.06066-0.29488 0.0049-0.41771-0.12454-0.12233-0.12891-1.8876-3.2561-3.9229-6.9494-4.4862-8.1405-9.0387-16.336-24.506-44.117-6.5237-11.717-11.855-21.413-11.847-21.545 0.0107-0.19262 1.9232-0.73648 2.8592-0.8134 0.11133-0.0091 0.90586-0.19824 1.7656-0.42021 3.1282-0.80762 24.583-5.7251 24.755-5.6739 0.0973 0.028979 1.0948 1.6998 2.217 3.713 1.1221 2.0131 2.1144 3.6824 2.205 3.7094 0.22043 0.06572 2.6067-1.2509 2.6715-1.474 0.028-0.09654-0.99277-2.022-2.2685-4.2787-1.2757-2.2568-2.2877-4.1977-2.2488-4.3132 0.0388-0.11546 0.39539-0.41985 0.79238-0.67643 0.39698-0.25658 0.75024-0.56193 0.78502-0.67856 0.0752-0.25235-1.5516-2.7078-1.8537-2.7979-0.1153-0.034384-0.80828 0.38606-1.5399 0.93432-0.90304 0.67672-1.4151 0.94256-1.5945 0.82783-0.88331-0.56482-21.7-16.914-21.826-17.142-0.12004-0.21705 1.8626-2.1988 8.9042-8.9001zm22.058 21.912c0.4695 0.69392 0.97732 1.2939 1.1285 1.3332 0.23873 0.062118 13.317-9.0757 13.648-9.5355 0.1646-0.22901-1.5474-3.4113-1.8456-3.4306-0.29106-0.01884-13.629 9.8508-13.718 10.151-0.0361 0.12102 0.31852 0.78779 0.788 1.4817zm6.3091 35.19c3.0051 5.3846 5.5383 9.8448 5.6292 9.9116 0.17459 0.12813 2.3109-0.92492 2.7446-1.3529 0.20703-0.20428-0.76896-2.067-5.227-9.9759-3.0148-5.3486-5.6047-9.7615-5.7552-9.8063-0.3425-0.10212-2.7056 0.93046-2.7919 1.2199-0.035 0.11741 2.3951 4.6191 5.4002 10.004zm1.1359-25.001c0.12479 4.8417 2.178 11.104 6.5432 19.958 3.2899 6.6725 6.8978 11.725 11.537 16.158 4.7463 4.5348 8.3311 5.6168 10.64 3.2116 0.98199-1.0228 1.4372-2.6197 1.2942-4.54-0.13182-1.7704-1.3511-6.6347-2.4941-9.9506-3.0196-8.7597-9.5933-20.611-14.286-25.755-4.1608-4.5613-9.3846-6.5847-11.629-4.5045-1.1098 1.0287-1.6707 2.9222-1.6063 5.4227zm26.311 50.227c0.49375 0.94788 0.96144 1.7424 1.0393 1.7657 0.21609 0.06443 12.532-7.4739 12.7-7.7732 0.13702-0.24477-1.7919-4.1359-2.0952-4.2264-0.24047-0.07171-12.372 7.9431-12.458 8.2303-0.046 0.1541 0.32043 1.0557 0.81419 2.0036zm30.338-5.6945c1.7692 5.9156 3.3543 11.033 3.5224 11.372 0.42194 0.85144 1.8713 2.2432 2.9527 2.8355 0.68784 0.37668 1.1488 0.51085 1.9462 0.56643 0.96091 0.067 1.3477-0.07357 4.8118-1.7488 3.0494-1.4746 3.8178-1.9265 4.0341-2.3725 0.14695-0.30299 0.68649-1.4891 1.199-2.6359 5.8704-13.136 13.377-24.521 26.959-40.892 1.9809-2.3875 4.0387-4.9564 4.5728-5.7087 1.2021-1.6932 2.2984-3.7043 2.1594-3.9613-0.0573-0.10597-4.6889 2.4553-10.292 5.6918-5.6036 3.2365-12.057 6.9223-14.34 8.1907-2.2837 1.2684-9.3437 5.3215-15.689 9.0068-6.3452 3.6853-12.314 7.1499-13.264 7.699-0.95024 0.54911-1.7413 1.0439-1.7579 1.0996-0.0167 0.05568 1.4174 4.9412 3.1866 10.857zm37.745-51.507c0.43623 0.83393 1.0454 2.0596 1.3538 2.7237l0.56069 1.2075-0.81876 2.752c-0.96984 3.2596-1.257 4.731-0.92662 4.747 0.1283 0.0062 2.4317-1.3154 5.1188-2.9371l4.8856-2.9484 0.97342 0.4043c0.53538 0.22236 1.6281 0.66033 2.4282 0.97325l1.4548 0.56895 0.23903-0.80172c0.54383-1.824 0.27656-4.8634-0.59364-6.7507-1.3873-3.0088-5.3403-4.5562-9.8723-3.8646-2.4607 0.37551-5.3308 1.5202-5.5359 2.2078-0.033 0.11095 0.29676 0.88403 0.73299 1.718z" style="fill:#5e5e5e;stroke-width:.18869"/>
		<path d="m221.55-15.007c1.014-0.94306 4.9216-4.6441 8.6834-8.2245 3.7619-3.5804 7.0074-6.6193 7.2123-6.7532 0.35554-0.23226 0.86902 0.02586 11.22 5.64 5.9661 3.2359 10.921 5.9068 11.012 5.9353 0.28053 0.0885 3.4418 6.0135 3.3582 6.294-0.0434 0.14567-3.1085 2.5085-6.8112 5.2507s-6.8076 5.1101-6.8997 5.2619c-0.11041 0.182 0.12279 0.7253 0.68449 1.5946 0.46862 0.72523 0.88662 1.4402 0.9289 1.5889 0.0422 0.14867 0.18815 0.3035 0.32416 0.34405 0.1361 0.040555 2.026-1.1902 4.1999-2.735 8.1471-5.7894 9.6436-6.8234 9.8594-6.8129 0.12172 0.00596 3.9174 7.0718 8.4347 15.702 13.953 26.657 18.672 35.657 20.31 38.739l1.5772 2.9677-0.6411 0.46185c-0.35261 0.25402-3.184 2.122-6.292 4.1511s-5.6896 3.8191-5.7369 3.9778c-0.13472 0.45199 1.9389 4.2313 2.2987 4.1895 0.16621-0.0193 3.1194-1.7577 6.5626-3.8632 3.4432-2.1054 6.3111-3.813 6.3731-3.7945 0.0619 0.01847 1.8213 3.2898 3.9097 7.2696s3.873 7.2586 3.9657 7.2863c0.21465 0.064 0.33173-0.92074 0.36077-3.0343 0.0122-0.91209 0.0642-1.7827 0.115-1.9347 0.093-0.27898 0.78806 3.6917 1.9075 10.897 0.33517 2.1575 0.81967 5.2687 1.0766 6.9138 0.257 1.645 0.40514 3.1135 0.32921 3.2632-0.10108 0.19914-16.537 8.3779-22.055 10.975l-0.4814 0.22655-3.292-10.981c-1.8106-6.0396-3.8202-12.716-4.4658-14.838s-1.1556-3.9176-1.1333-3.9923c0.0223-0.07475 0.5346-0.45571 1.1385-0.84658 0.60387-0.39087 1.1144-0.76601 1.1346-0.83363 0.0788-0.26413-1.8324-3.9245-2.089-4.001-0.14987-0.04468-0.72991 0.19623-1.289 0.53536l-1.0165 0.6166-2.7621-4.8905c-1.5192-2.6898-2.8977-4.9323-3.0634-4.9834-0.32698-0.10084-3.1857 1.5517-3.2901 1.9019-0.0352 0.11781 1.1222 2.3248 2.5718 4.9044s2.6138 4.7669 2.5872 4.8607c-0.0266 0.09377-1.8536 2.473-4.0598 5.2872-10.937 13.951-14.774 18.827-14.907 18.946-0.18546 0.16513-0.95762-1.1411-4.4578-7.5412-2.369-4.3315-2.7857-5.2174-2.561-5.444 0.42388-0.4275 0.38297-0.51116-0.28409-0.581-0.57528-0.06024-0.68933-0.18492-1.4221-1.5549-0.52337-0.97847-0.74133-1.6009-0.63534-1.8145 0.11423-0.23014 0.0446-0.37867-0.23828-0.50862-0.42444-0.19495-2.0779-3.0101-2.2309-3.7983-0.05-0.25744-0.29941-0.6691-0.55431-0.91479-0.29199-0.28145-0.50132-0.77411-0.56584-1.3317-0.0804-0.6951-0.22761-0.97221-0.68606-1.2916-0.48794-0.33997-0.55847-0.49119-0.43003-0.922 0.1439-0.48247-0.2036-1.2559-0.74562-1.6598-0.11897-0.08868 0.12158-0.32483 0.62588-0.61448 1.0001-0.57435 0.94072-1.0502-0.10047-0.80507-0.6451 0.1519-0.66056 0.14532-0.99071-0.42229-0.2298-0.39505-0.55372-0.64554-1.0288-0.79557-0.84894-0.2681-0.84813-0.26682-5.3043-8.3732-6.0454-11.181-12.007-21.273-18.036-32.52l-0.73503-1.3936 1.193-0.27922c2.9594-0.95778-10.068 2.2866 26.498-6.12 0.61163-0.14049 1.1793-0.20619 1.2614-0.14599 0.0821 0.060201 1.0796 1.738 2.2164 3.7285 1.1369 1.9905 2.1758 3.6514 2.3087 3.691 0.26353 0.07845 2.982-1.5243 3.0666-1.808 0.0286-0.096-0.99447-2.0138-2.2736-4.2617-1.2791-2.2479-2.2952-4.1772-2.2579-4.2872 0.0372-0.11 0.39244-0.40993 0.78942-0.66651 0.39699-0.25658 0.7519-0.56748 0.78869-0.6909 0.0867-0.29074-1.742-3.145-2.0794-3.2456-0.1416-0.042217-0.85799 0.36221-1.592 0.89872-1.0821 0.79095-1.4047 0.93668-1.7054 0.77037-0.3329-0.1841-6.8406-5.2339-17.758-13.78-2.1292-1.6667-3.8485-3.0833-3.8206-3.1479 0.0278-0.06469 0.88038-0.88921 1.8944-1.8323zm33.775 48.401c5.152 9.2811 6.6828 11.972 6.9067 12.139 0.23267 0.17424 3.1404-1.4256 3.2482-1.7871 0.05-0.16756-1.6885-3.4751-3.8632-7.35s-4.611-8.2453-5.414-9.7119c-0.80293-1.4666-1.6294-2.7672-1.8367-2.8902-0.2863-0.16993-0.72747-0.0753-1.8365 0.39394-0.80285 0.33968-1.5039 0.74567-1.5578 0.90219-0.054 0.15652 1.905 3.8931 4.3533 8.3036zm2.1913-23.107c0.1742 4.5022 1.9752 10.309 5.5518 17.9 2.7952 5.9323 5.2301 9.9157 8.4458 13.817 7.1559 8.6808 12.636 11.258 15.634 7.3512 0.70318-0.91624 1.1341-2.7542 1.0164-4.3349-0.18411-2.4725-2.1344-9.3571-3.8361-13.541-2.9898-7.3517-8.1878-16.519-11.917-21.015-2.8385-3.4228-5.093-5.1437-8.0918-6.1766-1.8391-0.63341-2.0748-0.67345-3.1092-0.52813-1.0714 0.15051-1.8675 0.58775-2.5316 1.3905-0.52639 0.63622-1.2185 3.6948-1.1627 5.138zm-13.885 59.852c0.0994 0.02965 0.21721-0.06814 0.2617-0.21732 0.0445-0.14917-5.1e-4 -0.2955-0.10001-0.32515-0.0994-0.02965-0.21723 0.06814-0.26171 0.21732-0.0445 0.14918 5e-4 0.2955 0.10001 0.32515zm-6.4025-10.966c0.23123 0.06894 0.47714 0.72122 0.30666 0.8134-0.17049 0.09218-0.5816-0.4708-0.51265-0.70203 0.026-0.08727 0.11867-0.1374 0.20599-0.11137zm68.666-79.395c14.041-7.5417 25.626-13.708 25.745-13.702 0.11943 0.0057 4.134 7.3386 8.9213 16.295 4.7873 8.9567 8.8398 16.325 9.0055 16.375 0.16571 0.049407 0.82856-0.20392 1.473-0.56296 2.2106-1.2315 4.9504-1.9597 7.5835-2.0155 6.5848-0.13948 11.006 3.208 11.931 9.033 0.37839 2.3827 0.26914 4.1993-0.38433 6.391-0.98206 3.2937-2.6368 5.8535-7.8116 12.084-13.131 15.81-20.318 26.579-26.2 39.26-1.3742 2.9622-1.4728 3.2912-1.1469 3.8281 0.25964 0.42783 0.25635 0.43452-0.42518 0.86228-0.70762 0.44413-0.86349 0.71755-1.9496 3.4197-0.57853 1.4394-0.61864 1.4607-2.2585 1.1987l-0.89273-0.14266 0.18936-0.6351c0.35757-1.1993-0.12524-1.1328-2.992 0.41183l-2.6716 1.4395-1.8632-0.47501c-2.1643-0.55176-3.3631-1.1597-4.6792-2.3728-1.7712-1.6326-1.9892-2.1807-5.496-13.821-3.2544-10.802-3.298-10.927-3.8946-11.105-0.57324-0.17092-0.60136-0.2286-0.56159-1.1519 0.0405-0.9412-0.38915-1.7635-13.554-25.937l-13.596-24.965zm8.1675 74.64c3.528 11.747 3.5503 11.813 4.3092 12.803 1.3015 1.6974 3.6702 2.8601 5.3334 2.6179 0.82784-0.12056 7.7561-3.3506 8.0432-3.7498 0.0962-0.13376 0.72861-1.4835 1.4054-2.9993 3.7628-8.4284 9.254-17.806 15.298-26.125 2.6469-3.6434 7.6603-10.011 12.089-15.355 3.9489-4.7648 5.5377-6.9759 6.2073-8.6385 0.42597-1.0577 0.43042-1.1291 0.0729-1.1729-0.20938-0.02565-3.2602 1.6172-6.7795 3.6507s-9.31 5.3575-12.868 7.3866c-6.6203 3.7754-21.203 12.166-30.649 17.635-3.2119 1.8596-5.3329 3.2037-5.4016 3.423-0.0622 0.1986 1.2604 4.9346 2.9392 10.524zm38.342-50.028 1.3806 2.5443-0.62475 2.5635c-3.9581 15.684-0.71524 2.861 4.0428 2.8064 2.0134-1.2097 4.0345-2.4101 4.4913-2.6675l0.83059-0.46803 2.2546 0.9479c1.24 0.52135 2.3783 0.9384 2.5295 0.9268 0.62011-0.04762 0.96367-3.0919 0.60809-5.3885-0.42889-2.7703-1.7889-4.6841-4.1279-5.8087-2.1758-1.0462-5.3801-1.2481-8.2713-0.52121-1.7711 0.44525-4.2375 1.6602-4.3868 2.1609-0.0647 0.21708 0.44063 1.3697 1.2733 2.9042z" style="stroke-width:.18869"/>
	</g>
	<g transform="translate(154.83 -25.722)" style="font-feature-settings:normal;font-variant-caps:normal;font-variant-ligatures:normal;font-variant-numeric:normal" aria-label="Spotlike">
		<path d="m-144.83 117.37 16.577-1.0385q0.53847 4.0386 2.1924 6.154 2.6924 3.4232 7.6925 3.4232 3.7308 0 5.7309-1.7308 2.0385-1.7693 2.0385-4.077 0-2.1924-1.9231-3.9232t-8.9233-3.2693q-11.462-2.577-16.346-6.8463-4.9232-4.2693-4.9232-10.885 0-4.3462 2.5001-8.1925 2.5385-3.8847 7.5771-6.0771 5.077-2.2308 13.885-2.2308 10.808 0 16.462 4.0385 5.6924 4.0001 6.7694 12.77l-16.423 0.96156q-0.65386-3.8078-2.7693-5.5386-2.077-1.7308-5.7694-1.7308-3.0385 0-4.577 1.3077-1.5385 1.2693-1.5385 3.1155 0 1.3462 1.2693 2.4231 1.2308 1.1154 5.8463 2.077 11.423 2.4616 16.346 5.0001 4.9616 2.5 7.1925 6.2309 2.2693 3.7308 2.2693 8.3463 0 5.4232-3.0001 10t-8.3848 6.9617q-5.3847 2.3462-13.577 2.3462-14.385 0-19.924-5.5386t-6.2694-14.077z" style="stroke-width:2.8132px"/>
		<path d="m-85.829 151.56v-56.386h14.654v6.0386q3.0385-3.8078 5.577-5.154 3.4232-1.8077 7.5771-1.8077 8.1925 0 12.654 6.2694 4.5001 6.2694 4.5001 15.5 0 10.193-4.8847 15.577-4.8847 5.3463-12.346 5.3463-3.6155 0-6.6155-1.2308-2.9616-1.2308-5.3078-3.6539v19.5zm15.693-35.847q0 4.8462 2.0385 7.1925 2.0385 2.3462 5.154 2.3462 2.7308 0 4.577-2.2308 1.8462-2.2693 1.8462-7.654 0-4.9616-1.9231-7.2694-1.9231-2.3462-4.6924-2.3462-3.0001 0-5.0001 2.3462t-2 7.6156z" style="stroke-width:2.8132px"/>
		<path d="m38.213 79.636v15.539h8.6156v11.423h-8.6156v14.5q0 2.6154 0.50001 3.4616 0.76925 1.3077 2.6924 1.3077 1.7308 0 4.8463-1l1.1539 10.808q-5.8078 1.2693-10.846 1.2693-5.8463 0-8.6156-1.5t-4.1155-4.5386q-1.3077-3.077-1.3077-9.9233v-14.385h-5.7694v-11.423h5.7694v-7.5002z" style="stroke-width:2.8132px"/>
		<path d="m54.79 79.636h15.693v56.386h-15.693z" style="stroke-width:2.8132px"/>
		<path d="m81.137 79.636h15.654v10.654h-15.654zm0 15.539h15.654v40.847h-15.654z" style="stroke-width:2.8132px"/>
		<path d="m106.87 79.636h16v29.078l11.693-13.539h19.27l-14.654 14.308 15.5 26.539h-17.654l-8.2694-16.385-5.8847 5.7694v10.616h-16z" style="stroke-width:2.8132px"/>
		<path d="m202.29 119.48h-31.385q0.42308 3.7693 2.0385 5.6155 2.2693 2.6539 5.9232 2.6539 2.3077 0 4.3847-1.1539 1.2692-0.73078 2.7308-2.577l15.423 1.4231q-3.5385 6.154-8.5386 8.8464-5.0001 2.6539-14.346 2.6539-8.1156 0-12.77-2.2693-4.6539-2.3077-7.7309-7.2694-3.0385-5.0001-3.0385-11.731 0-9.5771 6.1155-15.5 6.154-5.9232 16.962-5.9232 8.7694 0 13.846 2.6539 5.077 2.6539 7.7309 7.6925t2.6539 13.116zm-15.923-7.5002q-0.46155-4.5386-2.4616-6.5001-1.9616-1.9616-5.1924-1.9616-3.7308 0-5.9617 2.9616-1.4231 1.8462-1.8077 5.5001z" style="stroke-width:2.8132px"/>
	</g>
	<g transform="matrix(.049368 0 0 .049368 118.54 65.241)">
		<path d="m685.9 644.4c-163.1-75.4-391.4-42-401-40.6-21.5 3.2-36.3 23.3-33 44.8 3.2 21.5 23.3 36.3 44.8 33 2.1-0.3 214.3-31.4 356.2 34.2 5.3 2.5 11 3.6 16.5 3.6 14.9 0 29.1-8.5 35.7-22.8 9.2-19.7 0.6-43-19.2-52.2z"/>
		<path d="m731.8 502.8c-185.2-85.6-444.9-47.7-455.9-46-21.5 3.2-36.2 23.3-33 44.7 3.2 21.5 23.3 36.3 44.7 33 2.5-0.4 247.6-36 411.2 39.6 5.3 2.5 11 3.6 16.5 3.6 14.9 0 29.1-8.5 35.7-22.8 9.1-19.6 0.5-43-19.2-52.1z"/>
		<path d="m762.6 354.8c-204.6-94.6-491.9-52.6-504.1-50.8-21.5 3.2-36.2 23.3-33 44.8s23.3 36.3 44.7 33c2.7-0.4 276.4-40.2 459.3 44.4 5.3 2.5 11 3.6 16.5 3.6 14.9 0 29.1-8.5 35.7-22.8 9.2-19.7 0.6-43.1-19.1-52.2z"/>
		<path d="m500 10c-270.2 0-490 219.8-490 490s219.8 490 490 490 490-219.8 490-490-219.8-490-490-490zm0 901.3c-226.8 0-411.3-184.5-411.3-411.3s184.5-411.3 411.3-411.3 411.3 184.5 411.3 411.3-184.5 411.3-411.3 411.3z"/>
	</g>
</svg>
